<svg width="300" height="160" viewBox="0 0 300 160" fill="none" xmlns="http://www.w3.org/2000/svg">
<g clip-path="url(#clip0_20_22)">
<path d="M300 0H0V160H300V0Z" fill="#DBF5FF"/>
<mask id="mask0_20_22" style="mask-type:luminance" maskUnits="userSpaceOnUse" x="34" y="16" width="232" height="128">
<path d="M265.5 16H34.5V144H265.5V16Z" fill="white"/>
</mask>
<g mask="url(#mask0_20_22)">
<path d="M138.5 16H58.5C45.2452 16 34.5 26.7452 34.5 40V120C34.5 133.255 45.2452 144 58.5 144H138.5C151.755 144 162.5 133.255 162.5 120V40C162.5 26.7452 151.755 16 138.5 16Z" fill="#CB1B45"/>
<path d="M122.191 58.1612C120.923 52.6999 117.839 47.8306 113.443 44.3498C109.048 40.8691 103.602 38.983 97.9951 39.0001C92.3885 39.0172 86.9537 40.9365 82.5798 44.444C78.2058 47.9515 75.1516 52.8395 73.9169 58.3085C68.1045 59.8497 63.0514 63.4532 59.7007 68.4465C56.3501 73.4397 54.9307 79.4816 55.7076 85.4445C56.4845 91.4074 59.4045 96.8839 63.9227 100.852C68.4408 104.82 74.2485 107.009 80.2618 107.009C81.6984 107.008 83.1322 106.88 84.5462 106.626C88.3623 108.844 92.7026 109.999 97.1162 109.972V119.299C97.1162 119.656 97.2577 119.997 97.5095 120.249C97.7613 120.501 98.1029 120.642 98.459 120.642C98.8151 120.642 99.1567 120.501 99.4085 120.249C99.6603 119.997 99.8018 119.656 99.8018 119.299V109.935C104.134 109.846 108.381 108.715 112.183 106.637C115.739 107.261 119.39 107.098 122.876 106.16C126.363 105.221 129.602 103.53 132.365 101.205C135.127 98.8797 137.347 95.9774 138.867 92.7021C140.387 89.4267 141.171 85.8581 141.163 82.2472C141.15 76.6889 139.274 71.2954 135.835 66.929C132.395 62.5626 127.591 59.4755 122.191 58.1612ZM97.7649 107.304C88.9098 107.304 82.3849 103.554 79.3913 96.7461C76.7406 90.7166 78.58 82.9889 79.3895 80.2268C82.7664 80.9208 85.9694 82.2863 88.8084 84.2421C88.9672 84.3514 89.1477 84.4253 89.3376 84.4586C89.5275 84.492 89.7224 84.484 89.9089 84.4353C90.0955 84.3866 90.2694 84.2983 90.4187 84.1764C90.5681 84.0545 90.6895 83.9019 90.7746 83.7289C92.4315 80.4496 94.689 77.5103 97.43 75.0636C100.574 77.6628 103.127 80.9017 104.922 84.5647C105.01 84.7437 105.136 84.9009 105.293 85.0249C105.449 85.1489 105.63 85.2365 105.825 85.2815C106.019 85.3264 106.221 85.3275 106.416 85.2847C106.611 85.242 106.793 85.1563 106.951 85.0341C110.035 82.6671 113.612 81.026 117.418 80.2329C118.152 83.0182 119.768 90.6458 117.423 96.8091C116.224 99.9646 111.906 107.304 97.7649 107.304ZM116.402 104.324C116.069 104.324 115.735 104.314 115.402 104.299C117.406 102.507 118.959 100.268 119.935 97.7637C123.188 89.2108 119.805 78.7511 119.66 78.31C119.563 78.0173 119.369 77.7668 119.109 77.6005C118.85 77.4342 118.541 77.3621 118.234 77.3965C114.053 77.9987 110.068 79.5654 106.596 81.9726C104.522 78.1559 101.638 74.8385 98.148 72.2526C97.9154 72.0902 97.6373 72.0057 97.3537 72.0111C97.07 72.0165 96.7954 72.1115 96.5691 72.2826C93.5275 74.7579 90.9819 77.7865 89.0665 81.2085C85.8858 79.2187 82.3224 77.9198 78.6073 77.396C78.3078 77.3615 78.0054 77.4292 77.7492 77.588C77.4929 77.7468 77.2978 77.9875 77.1954 78.2711C77.0311 78.7211 73.2254 89.3934 76.9331 97.8262C77.9893 100.266 79.5323 102.465 81.4676 104.288C81.0676 104.31 80.666 104.323 80.2622 104.323C74.8346 104.323 69.5973 102.323 65.5507 98.7054C61.5041 95.0882 58.9318 90.1071 58.325 84.7135C57.7183 79.3199 59.1196 73.8918 62.2613 69.4659C65.403 65.04 70.0651 61.9265 75.3569 60.7201C75.6124 60.6622 75.8454 60.531 76.0273 60.3424C76.2092 60.1538 76.332 59.9162 76.3806 59.6588C77.3342 54.6155 80.0154 50.0622 83.963 46.7819C87.9106 43.5016 92.8779 41.6995 98.0105 41.6854C103.143 41.6713 108.12 43.4462 112.086 46.7048C116.051 49.9634 118.758 54.5019 119.739 59.5399C119.789 59.8011 119.916 60.0414 120.103 60.2304C120.291 60.4193 120.53 60.5484 120.79 60.6012C126.155 61.6899 130.924 64.7324 134.173 69.1386C137.421 73.5448 138.917 79.0004 138.37 84.4472C137.823 89.8939 135.273 94.9434 131.214 98.6161C127.155 102.289 121.876 104.323 116.402 104.324Z" fill="#DBF5FF" stroke="#DBF5FF" stroke-width="1.5"/>
<path d="M180.676 101.5C180.036 101.5 179.716 101.265 179.716 100.796C179.716 100.412 179.993 100.156 180.548 100.028L182.02 99.772C182.916 99.6013 183.492 99.3667 183.748 99.068C184.047 98.7693 184.196 98.172 184.196 97.276V59.644C184.196 58.748 184.047 58.1507 183.748 57.852C183.492 57.5533 182.916 57.3187 182.02 57.148L180.548 56.892C179.993 56.764 179.716 56.508 179.716 56.124C179.716 55.6547 180.036 55.42 180.676 55.42H192.26C192.9 55.42 193.22 55.6547 193.22 56.124C193.22 56.508 192.943 56.764 192.388 56.892L190.916 57.148C190.02 57.3187 189.423 57.5533 189.124 57.852C188.868 58.1507 188.74 58.748 188.74 59.644V97.276C188.74 98.172 188.868 98.7693 189.124 99.068C189.423 99.3667 190.02 99.6013 190.916 99.772L192.388 100.028C192.943 100.156 193.22 100.412 193.22 100.796C193.22 101.265 192.9 101.5 192.26 101.5H180.676ZM196.358 101.5C195.718 101.5 195.398 101.265 195.398 100.796C195.398 100.412 195.675 100.156 196.23 100.028L196.998 99.9C197.894 99.7293 198.47 99.4733 198.726 99.132C199.024 98.748 199.174 98.108 199.174 97.212V75.708C199.174 74.94 199.046 74.428 198.79 74.172C198.576 73.8733 198.171 73.6813 197.574 73.596L196.23 73.404C195.675 73.3613 195.398 73.1267 195.398 72.7C195.398 72.3587 195.739 72.124 196.422 71.996C197.744 71.7827 198.747 71.4413 199.43 70.972C200.155 70.5027 200.902 69.9267 201.67 69.244C202.054 68.86 202.374 68.668 202.63 68.668C203.014 68.668 203.206 68.924 203.206 69.436V72.316C203.206 72.6147 203.334 72.8493 203.59 73.02C203.846 73.148 204.123 73.0627 204.422 72.764C206.171 71.1 207.686 69.9693 208.966 69.372C210.288 68.7747 211.611 68.476 212.934 68.476C214.171 68.476 215.259 68.8173 216.198 69.5C217.179 70.14 217.904 71.1213 218.374 72.444C218.502 72.7853 218.715 72.9987 219.014 73.084C219.355 73.1267 219.675 72.9987 219.974 72.7C221.723 71.0787 223.238 69.9693 224.518 69.372C225.798 68.7747 227.099 68.476 228.422 68.476C230.214 68.476 231.664 69.1587 232.774 70.524C233.926 71.8467 234.502 73.8093 234.502 76.412V97.212C234.502 98.108 234.63 98.748 234.886 99.132C235.184 99.4733 235.782 99.708 236.678 99.836L238.086 100.028C238.555 100.113 238.79 100.369 238.79 100.796C238.79 101.265 238.534 101.5 238.022 101.5H227.078C226.48 101.5 226.182 101.265 226.182 100.796C226.182 100.369 226.416 100.113 226.886 100.028L227.782 99.9C228.763 99.772 229.403 99.516 229.701 99.132C230 98.748 230.15 98.108 230.15 97.212V77.116C230.15 75.0253 229.766 73.5533 228.998 72.7C228.272 71.8467 227.27 71.42 225.99 71.42C224.71 71.42 223.536 71.8253 222.47 72.636C221.446 73.404 220.614 74.4493 219.974 75.772C219.334 77.052 219.014 78.4813 219.014 80.06V97.212C219.014 98.108 219.163 98.748 219.462 99.132C219.76 99.4733 220.379 99.708 221.318 99.836L222.726 100.028C223.195 100.113 223.43 100.369 223.43 100.796C223.43 101.265 223.174 101.5 222.662 101.5H211.782C211.184 101.5 210.885 101.265 210.885 100.796C210.885 100.369 211.12 100.113 211.59 100.028L212.486 99.9C213.382 99.772 213.958 99.516 214.214 99.132C214.512 98.748 214.662 98.108 214.662 97.212V77.116C214.662 75.0253 214.278 73.5533 213.51 72.7C212.784 71.8467 211.782 71.42 210.502 71.42C209.222 71.42 208.048 71.8253 206.982 72.636C205.958 73.404 205.126 74.4493 204.486 75.772C203.846 77.052 203.526 78.4813 203.526 80.06V97.212C203.526 98.108 203.654 98.748 203.91 99.132C204.208 99.516 204.806 99.7507 205.702 99.836L207.43 100.028C207.899 100.113 208.134 100.348 208.134 100.732C208.134 101.244 207.814 101.5 207.174 101.5H196.358ZM247.18 102.076C245.388 102.076 243.916 101.521 242.764 100.412C241.612 99.26 241.036 97.7453 241.036 95.868C241.036 94.0333 241.612 92.3053 242.764 90.684C243.916 89.02 245.495 87.5267 247.5 86.204C249.505 84.8813 251.788 83.8147 254.348 83.004C254.903 82.8333 255.18 82.4707 255.18 81.916V76.092C255.18 74.044 254.86 72.5933 254.22 71.74C253.58 70.844 252.705 70.396 251.596 70.396C250.529 70.396 249.548 70.8867 248.652 71.868C247.799 72.8067 247.18 74.4067 246.796 76.668C246.583 78.0333 246.113 79.036 245.388 79.676C244.705 80.2733 244.001 80.572 243.276 80.572C242.081 80.572 241.484 79.9747 241.484 78.78C241.484 77.5427 241.825 76.3267 242.508 75.132C243.233 73.8947 244.172 72.7853 245.324 71.804C246.476 70.78 247.735 69.9693 249.1 69.372C250.465 68.7747 251.831 68.476 253.196 68.476C257.42 68.476 259.532 70.9293 259.532 75.836V95.42C259.532 97.212 259.98 98.108 260.876 98.108C261.431 98.108 261.943 97.7453 262.412 97.02C262.881 96.252 263.116 94.972 263.116 93.18C263.116 92.4973 263.393 92.156 263.948 92.156C264.46 92.156 264.716 92.5187 264.716 93.244C264.716 96.3587 264.161 98.62 263.052 100.028C261.985 101.393 260.769 102.076 259.404 102.076C258.38 102.076 257.569 101.671 256.972 100.86C256.375 100.007 255.969 99.004 255.756 97.852C255.713 97.4253 255.521 97.212 255.18 97.212C254.881 97.1693 254.583 97.3613 254.284 97.788C253.26 99.196 252.215 100.263 251.148 100.988C250.081 101.713 248.759 102.076 247.18 102.076ZM248.908 99.132C250.017 99.132 251.041 98.748 251.98 97.98C252.919 97.1693 253.687 96.1027 254.284 94.78C254.881 93.4573 255.18 91.964 255.18 90.3V85.628C255.18 84.8173 254.732 84.5827 253.836 84.924C251.233 85.8627 249.207 87.164 247.756 88.828C246.348 90.4493 245.644 92.412 245.644 94.716C245.644 97.66 246.732 99.132 248.908 99.132Z" fill="black"/>
</g>
</g>
<defs>
<clipPath id="clip0_20_22">
<rect width="300" height="160" fill="white"/>
</clipPath>
</defs>
</svg>